<svg width="36" height="36" viewBox="0 0 36 36" fill="none" xmlns="http://www.w3.org/2000/svg">
<path d="M19.542 3.0016C20.6366 2.9974 21.7312 3.0084 22.8255 3.0346L23.1165 3.0451C23.4525 3.0571 23.784 3.0721 24.1845 3.0901C25.7805 3.1651 26.8695 3.4171 27.825 3.7876C28.815 4.1686 29.649 4.6846 30.483 5.5186C31.2456 6.26801 31.8358 7.17452 32.2125 8.1751C32.583 9.1306 32.835 10.2211 32.91 11.8171C32.928 12.2161 32.943 12.5491 32.955 12.8851L32.964 13.1761C32.9907 14.2699 33.0022 15.364 32.9985 16.4581L33 17.5771V19.5421C33.0037 20.6367 32.9922 21.7313 32.9655 22.8256L32.9565 23.1166C32.9445 23.4526 32.9295 23.7841 32.9115 24.1846C32.8365 25.7806 32.5815 26.8696 32.2125 27.8251C31.837 28.8267 31.2467 29.734 30.483 30.4831C29.733 31.2456 28.826 31.8357 27.825 32.2126C26.8695 32.5831 25.7805 32.8351 24.1845 32.9101C23.784 32.9281 23.4525 32.9431 23.1165 32.9551L22.8255 32.9641C21.7312 32.9908 20.6366 33.0023 19.542 32.9986L18.423 33.0001H16.4595C15.3649 33.0038 14.2703 32.9923 13.176 32.9656L12.885 32.9566C12.5289 32.9437 12.1729 32.9287 11.817 32.9116C10.221 32.8366 9.13201 32.5816 8.17501 32.2126C7.17404 31.8366 6.26737 31.2463 5.51851 30.4831C4.75508 29.7335 4.16435 28.8264 3.78751 27.8251C3.41701 26.8696 3.16501 25.7806 3.09001 24.1846C3.07331 23.8287 3.05831 23.4727 3.04501 23.1166L3.03751 22.8256C3.00986 21.7313 2.99736 20.6367 3.00001 19.5421V16.4581C2.99582 15.364 3.00683 14.2699 3.03301 13.1761L3.04351 12.8851C3.05551 12.5491 3.07051 12.2161 3.08851 11.8171C3.16351 10.2196 3.41551 9.1321 3.78601 8.1751C4.16307 7.17403 4.75496 6.26777 5.52001 5.5201C6.26835 4.75623 7.17445 4.16496 8.17501 3.7876C9.13201 3.4171 10.2195 3.1651 11.817 3.0901L12.885 3.0451L13.176 3.0376C14.2698 3.00996 15.3639 2.99746 16.458 3.0001L19.542 3.0016ZM18 10.5016C17.0063 10.4875 16.0196 10.6711 15.0975 11.0417C14.1753 11.4123 13.336 11.9624 12.6283 12.6602C11.9206 13.3579 11.3586 14.1894 10.975 15.1062C10.5915 16.0231 10.3939 17.007 10.3939 18.0009C10.3939 18.9947 10.5915 19.9786 10.975 20.8955C11.3586 21.8123 11.9206 22.6438 12.6283 23.3415C13.336 24.0393 14.1753 24.5894 15.0975 24.96C16.0196 25.3306 17.0063 25.5142 18 25.5001C19.9891 25.5001 21.8968 24.7099 23.3033 23.3034C24.7098 21.8969 25.5 19.9892 25.5 18.0001C25.5 16.011 24.7098 14.1033 23.3033 12.6968C21.8968 11.2903 19.9891 10.5016 18 10.5016ZM18 13.5016C18.5978 13.4906 19.1917 13.5988 19.7472 13.8199C20.3027 14.041 20.8085 14.3706 21.2352 14.7894C21.6618 15.2082 22.0008 15.7078 22.2322 16.2591C22.4636 16.8104 22.5828 17.4022 22.5829 18.0001C22.583 18.5979 22.464 19.1898 22.2328 19.7412C22.0015 20.2925 21.6628 20.7923 21.2362 21.2112C20.8097 21.6302 20.304 21.9599 19.7486 22.1812C19.1932 22.4025 18.5993 22.5109 18.0015 22.5001C16.808 22.5001 15.6634 22.026 14.8195 21.1821C13.9756 20.3382 13.5015 19.1936 13.5015 18.0001C13.5015 16.8066 13.9756 15.662 14.8195 14.8181C15.6634 13.9742 16.808 13.5001 18.0015 13.5001L18 13.5016ZM25.875 8.2516C25.3911 8.27097 24.9335 8.47683 24.5979 8.82606C24.2624 9.17529 24.075 9.6408 24.075 10.1251C24.075 10.6094 24.2624 11.0749 24.5979 11.4241C24.9335 11.7734 25.3911 11.9792 25.875 11.9986C26.3723 11.9986 26.8492 11.8011 27.2008 11.4494C27.5525 11.0978 27.75 10.6209 27.75 10.1236C27.75 9.62632 27.5525 9.14941 27.2008 8.79778C26.8492 8.44615 26.3723 8.2486 25.875 8.2486V8.2516Z" fill="#3E3E3E"/>
</svg>
