<svg width="36" height="36" viewBox="0 0 36 36" fill="none" xmlns="http://www.w3.org/2000/svg">
<path d="M31.3498 4.65023C30.2491 3.54958 28.9247 3 27.3751 3H8.62491C7.07528 3 5.75089 3.54958 4.65023 4.65023C3.54958 5.75089 3 7.07528 3 8.62491V27.3751C3 28.9247 3.54958 30.2491 4.65023 31.3498C5.75089 32.4504 7.07528 33 8.62491 33H13.0005C13.2858 33 13.5005 32.9895 13.6447 32.97C13.8124 32.9363 13.9638 32.8469 14.0741 32.7162C14.2168 32.566 14.2889 32.3483 14.2889 32.063L14.2783 30.7341C14.2723 29.8872 14.2693 29.2175 14.2693 28.722L13.8189 28.8001C13.5336 28.8526 13.1732 28.8752 12.7362 28.8692C12.2808 28.8608 11.8268 28.8151 11.3788 28.7325C10.9019 28.6445 10.453 28.4437 10.0694 28.1469C9.66774 27.843 9.36815 27.424 9.21052 26.9456L9.01532 26.4952C8.85079 26.1398 8.64408 25.8056 8.39967 25.4996C8.12038 25.1347 7.83658 24.8885 7.54978 24.7578L7.41464 24.6602C7.3204 24.5928 7.23469 24.5141 7.15937 24.426C7.08743 24.3442 7.02821 24.2521 6.98368 24.1527C6.94464 24.0611 6.97768 23.986 7.08129 23.9275C7.1864 23.8674 7.37409 23.8389 7.64888 23.8389L8.03929 23.8989C8.29906 23.95 8.6219 24.1062 9.00481 24.3659C9.3923 24.6301 9.71599 24.9774 9.9523 25.3825C10.2526 25.9156 10.613 26.3225 11.0364 26.6033C11.4599 26.8826 11.8863 27.0237 12.3158 27.0237C12.7452 27.0237 13.1161 26.9907 13.43 26.9261C13.7334 26.8634 14.0283 26.7646 14.3084 26.6318C14.4255 25.7609 14.7438 25.0882 15.2649 24.6197C14.5897 24.5535 13.9206 24.436 13.2633 24.2683C12.6218 24.0921 12.0049 23.8364 11.4268 23.507C10.8221 23.1778 10.2879 22.7329 9.8547 22.1977C9.43876 21.6766 9.0964 20.9934 8.82912 20.148C8.56334 19.3011 8.4297 18.3236 8.4297 17.2169C8.4297 15.6418 8.94324 14.3009 9.97182 13.1927C9.49132 12.0095 9.53636 10.6806 10.1085 9.21052C10.4869 9.0919 11.0469 9.18049 11.7887 9.4733C12.5305 9.7661 13.0741 10.0169 13.4194 10.2241C13.7648 10.4343 14.0411 10.61 14.2498 10.7526C15.4706 10.4129 16.7321 10.2421 17.9992 10.2451C19.2891 10.2451 20.5384 10.4148 21.7502 10.7526L22.492 10.2841C23.0625 9.94157 23.6644 9.65397 24.2894 9.42525C24.9801 9.16397 25.5056 9.0934 25.872 9.21052C26.4576 10.6821 26.5087 12.0095 26.0267 13.1942C27.0553 14.3009 27.5703 15.6418 27.5703 17.2184C27.5703 18.3251 27.4367 19.3056 27.1694 20.157C26.9036 21.0099 26.5582 21.6931 26.1348 22.2082C25.6939 22.7365 25.1576 23.1772 24.5536 23.507C23.923 23.8584 23.3103 24.1122 22.7172 24.2683C22.0599 24.4366 21.3908 24.5546 20.7156 24.6212C21.3913 25.2068 21.7307 26.1303 21.7307 27.3931V32.063C21.7307 32.2837 21.7622 32.4624 21.8283 32.5991C21.8586 32.6649 21.9019 32.724 21.9556 32.7727C22.0093 32.8215 22.0722 32.8589 22.1406 32.8829C22.2847 32.9339 22.4109 32.967 22.522 32.979C22.6331 32.994 22.7923 32.9985 22.9995 32.9985H27.3751C28.9247 32.9985 30.2491 32.4489 31.3498 31.3483C32.4489 30.2491 33 28.9232 33 27.3736V8.62491C33 7.07528 32.4504 5.75089 31.3498 4.65023Z" fill="#3E3E3E"/>
</svg>
