<svg width="36" height="36" viewBox="0 0 36 36" fill="none" xmlns="http://www.w3.org/2000/svg">
<g clip-path="url(#clip0_53_391)">
<path d="M18 6C11.37 6 6 11.37 6 18C6 23.31 9.435 27.795 14.205 29.385C14.805 29.49 15.03 29.13 15.03 28.815C15.03 28.53 15.015 27.585 15.015 26.58C12 27.135 11.22 25.845 10.98 25.17C10.845 24.825 10.26 23.76 9.75 23.475C9.33 23.25 8.73 22.695 9.735 22.68C10.68 22.665 11.355 23.55 11.58 23.91C12.66 25.725 14.385 25.215 15.075 24.9C15.18 24.12 15.495 23.595 15.84 23.295C13.17 22.995 10.38 21.96 10.38 17.37C10.38 16.065 10.845 14.985 11.61 14.145C11.49 13.845 11.07 12.615 11.73 10.965C11.73 10.965 12.735 10.65 15.03 12.195C15.99 11.925 17.01 11.79 18.03 11.79C19.05 11.79 20.07 11.925 21.03 12.195C23.325 10.635 24.33 10.965 24.33 10.965C24.99 12.615 24.57 13.845 24.45 14.145C25.215 14.985 25.68 16.05 25.68 17.37C25.68 21.975 22.875 22.995 20.205 23.295C20.64 23.67 21.015 24.39 21.015 25.515C21.015 27.12 21 28.41 21 28.815C21 29.13 21.225 29.505 21.825 29.385C24.2073 28.581 26.2775 27.05 27.744 25.0076C29.2106 22.9653 29.9996 20.5144 30 18C30 11.37 24.63 6 18 6Z" fill="#9D9D9D"/>
</g>
<defs>
<clipPath id="clip0_53_391">
<rect width="24" height="24" fill="white" transform="translate(6 6)"/>
</clipPath>
</defs>
</svg>
